<?xml version="1.0" encoding="utf-8"?>
<!-- Generator: Adobe Illustrator 16.0.0, SVG Export Plug-In . SVG Version: 6.00 Build 0)  -->
<!DOCTYPE svg PUBLIC "-//W3C//DTD SVG 1.1//EN" "http://www.w3.org/Graphics/SVG/1.1/DTD/svg11.dtd">
<svg version="1.1" id="Layer_1" xmlns="http://www.w3.org/2000/svg" xmlns:xlink="http://www.w3.org/1999/xlink" x="0px" y="0px"
	 width="1700.791px" height="1133.859px" viewBox="0 0 1700.791 1133.859" enable-background="new 0 0 1700.791 1133.859"
	 xml:space="preserve">
<path fill="#0000FF" d="M465.765,191.009c-4.064,4.064-16.256,14.514-41.221,14.514c-34.254,0-62.121-20.9-62.121-59.799
	s27.867-59.799,62.121-59.799c26.126,0,38.898,11.031,38.898,11.031l-9.87,31.932c0,0-11.611-9.87-26.126-9.87
	c-14.514,0-26.706,8.128-26.706,26.707c0,17.998,13.354,26.125,26.706,26.125c13.354,0,22.643-5.806,27.868-10.45L465.765,191.009z"
	/>
<path fill="#0000FF" d="M559.238,203.781h-37.737V87.667h37.737V203.781z"/>
<path fill="#0000FF" d="M714.251,203.781h-43.543l-18.578-38.898h-4.645v38.898h-37.737V87.667h50.51
	c14.514,0,24.965,2.322,33.673,8.128c8.709,5.806,14.515,16.256,14.515,28.448c0,23.804-14.515,31.932-19.159,34.834
	L714.251,203.781z M665.482,118.437c-1.741-1.161-4.645-2.322-8.708-2.322h-9.289v20.32h9.289c4.063,0,6.967-0.581,8.128-1.742
	c1.742-1.161,4.064-2.903,4.064-8.128C669.547,121.34,666.644,119.598,665.482,118.437z"/>
<path fill="#0000FF" d="M852.427,191.009c-4.064,4.064-16.256,14.514-41.221,14.514c-34.254,0-62.121-20.9-62.121-59.799
	s27.867-59.799,62.121-59.799c26.126,0,38.898,11.031,38.898,11.031l-9.87,31.932c0,0-11.611-9.87-26.126-9.87
	c-14.514,0-26.706,8.128-26.706,26.707c0,17.998,13.354,26.125,26.706,26.125c13.354,0,22.643-5.806,27.868-10.45L852.427,191.009z"
	/>
<path fill="#0000FF" d="M472.152,355.892c0,18.578-4.064,29.609-12.773,37.737c-8.708,8.128-22.062,13.354-40.06,13.354
	s-31.932-5.226-40.06-13.354s-12.772-19.159-12.772-37.737v-66.766h38.318v67.927c0,6.967,1.161,9.87,4.063,12.772
	c2.322,2.322,5.806,4.064,11.031,4.064c5.225,0,8.128-1.742,11.031-4.064c2.322-2.322,3.483-5.806,3.483-12.772v-67.927h38.317
	v66.766H472.152z"/>
<path fill="#0000FF" d="M559.818,405.24h-37.737V289.125h37.737V405.24z"/>
<path fill="#0000FF" d="M704.381,318.734h-27.286v86.506h-37.737v-86.506H612.07v-29.609h92.311V318.734z"/>
<path fill="#0000FF" d="M962.156,830.801c-4.064,4.063-16.256,14.514-41.221,14.514c-34.254,0-62.122-20.9-62.122-59.799
	s27.868-59.799,62.122-59.799c26.125,0,38.898,11.031,38.898,11.031l-9.87,31.931c0,0-11.611-9.869-26.126-9.869
	c-14.514,0-26.706,8.128-26.706,26.706c0,17.998,13.353,26.126,26.706,26.126s22.643-5.806,27.867-10.45L962.156,830.801z"/>
<path fill="#0000FF" d="M1042.275,842.992h-37.737V726.878h37.737V842.992z"/>
<path fill="#0000FF" d="M1197.288,842.992h-43.543l-18.578-38.898h-4.645v38.898h-37.737V726.878h50.51
	c14.514,0,24.965,2.322,33.673,8.128c8.709,5.806,14.515,16.256,14.515,28.448c0,23.804-14.515,31.932-19.159,34.834
	L1197.288,842.992z M1148.519,758.229c-1.741-1.161-4.063-2.322-8.128-2.322h-9.289v20.32h9.289c4.064,0,6.968-0.58,8.128-1.741
	c1.742-1.161,4.064-2.903,4.064-8.128C1152.584,761.132,1150.261,759.39,1148.519,758.229z"/>
<path fill="#0000FF" d="M1335.465,830.801c-4.064,4.063-16.256,14.514-41.221,14.514c-34.254,0-62.121-20.9-62.121-59.799
	s27.867-59.799,62.121-59.799c26.125,0,38.898,11.031,38.898,11.031l-9.87,31.931c0,0-11.611-9.869-26.126-9.869
	c-14.514,0-26.706,8.128-26.706,26.706c0,17.998,13.353,26.126,26.706,26.126s22.643-5.806,27.868-10.45L1335.465,830.801z"/>
<path fill="#0000FF" d="M1198.449,995.103c0,18.579-4.064,29.609-12.772,37.737c-8.709,8.128-22.062,13.354-40.06,13.354
	c-18.578,0-31.932-5.226-40.06-13.354s-12.772-19.158-12.772-37.737v-66.185h38.318v67.927c0,6.967,1.16,9.869,4.063,12.772
	c2.322,2.322,5.806,4.064,11.03,4.064c5.226,0,8.129-1.742,11.031-4.064c2.322-2.322,3.483-5.806,3.483-12.772v-67.927h38.318
	v66.185H1198.449z"/>
<path fill="#0000FF" d="M1318.628,1036.904c-9.289,6.967-20.9,9.869-34.254,9.869c-13.353,0-29.028-3.483-44.704-15.675
	l16.837-28.448c11.03,9.289,26.126,12.772,30.771,12.772s8.708-1.741,8.708-4.645s-4.063-4.645-8.128-5.806
	c-4.063-1.161-13.354-4.064-16.836-5.226c-3.484-1.161-9.87-3.483-16.257-8.708c-5.806-5.226-10.45-12.192-10.45-24.965
	s6.387-22.062,13.354-27.867s18.578-9.87,34.254-9.87s31.351,5.806,41.221,13.934l-14.515,26.707
	c-8.708-7.548-21.481-11.031-27.287-11.031s-9.289,1.161-9.289,4.645s5.226,4.645,8.128,5.226c2.903,0.58,9.87,2.902,13.934,4.063
	c4.064,1.161,13.354,4.645,19.159,9.87c5.806,5.225,11.031,12.772,11.031,24.965
	C1333.722,1018.906,1327.917,1029.938,1318.628,1036.904z"/>
<path fill="#0000FF" d="M1385.974,31.351v1071.158H314.816V31.351H1385.974 M283.466,1133.859h1133.859V0l0,0H283.466"/>
<path fill="#0000FF" d="M1335.465,416.271c-37.737,0-56.316-30.771-70.83-55.155c-15.095-25.545-25.545-40.64-45.285-40.64
	c-19.739,0-30.189,15.676-45.284,40.64c-15.095,24.385-33.674,55.155-70.83,55.155c-37.157,0-56.315-30.771-70.83-55.155
	c-15.095-25.545-25.545-40.64-45.284-40.64c-19.74,0-30.19,15.676-45.285,40.64c-15.095,24.385-33.674,55.155-70.83,55.155
	s-56.315-30.771-70.83-55.155c-15.095-25.545-25.545-40.64-45.285-40.64v-30.19c37.738,0,56.316,30.77,70.83,55.155
	c15.096,25.545,25.546,40.64,45.285,40.64s30.189-15.675,45.285-40.64c15.095-24.385,33.673-55.155,70.83-55.155
	c37.736,0,56.315,30.77,70.829,55.155c15.095,25.545,25.546,40.64,45.285,40.64s30.189-15.675,45.284-40.64
	c15.096-24.385,33.674-55.155,70.83-55.155c37.737,0,56.316,30.77,70.83,55.155c15.095,25.545,25.545,40.64,45.285,40.64V416.271z"
	/>
<path fill="#0000FF" d="M1335.465,416.271c-37.737,0-56.316-30.771-70.83-55.155c-15.095-25.545-25.545-40.64-45.285-40.64
	c-19.739,0-30.189,15.676-45.284,40.64c-15.095,24.385-33.674,55.155-70.83,55.155c-37.157,0-56.315-30.771-70.83-55.155
	c-15.095-25.545-25.545-40.64-45.284-40.64c-19.74,0-30.19,15.676-45.285,40.64c-15.095,24.385-33.674,55.155-70.83,55.155
	s-56.315-30.771-70.83-55.155c-15.095-25.545-25.545-40.64-45.285-40.64v-30.19c37.738,0,56.316,30.77,70.83,55.155
	c15.096,25.545,25.546,40.64,45.285,40.64s30.189-15.675,45.285-40.64c15.095-24.385,33.673-55.155,70.83-55.155
	c37.736,0,56.315,30.77,70.829,55.155c15.095,25.545,25.546,40.64,45.285,40.64s30.189-15.675,45.284-40.64
	c15.096-24.385,33.674-55.155,70.83-55.155c37.737,0,56.316,30.77,70.83,55.155c15.095,25.545,25.545,40.64,45.285,40.64V416.271z"
	/>
<path fill="#0000FF" d="M822.238,843.573c-32.513,0-47.027-31.351-59.219-56.315c-11.611-23.804-19.74-39.479-31.932-39.479
	c-12.192,0-20.9,15.676-31.932,39.479c-12.192,24.965-26.706,56.315-59.219,56.315c-32.512,0-47.026-31.351-59.219-56.315
	c-11.611-23.804-19.739-39.479-31.931-39.479c-12.192,0-20.901,15.676-31.932,39.479c-12.192,24.965-26.707,56.315-59.219,56.315
	c-32.513,0-47.026-31.351-59.219-56.315c-11.611-23.804-19.739-39.479-31.932-39.479v-30.189c32.512,0,47.026,31.351,59.219,56.315
	c11.611,23.804,19.739,39.479,31.932,39.479s20.9-15.676,31.932-39.479c12.192-24.965,26.706-56.315,59.219-56.315
	c32.512,0,47.026,31.351,59.218,56.315c11.611,23.804,19.74,39.479,31.932,39.479c12.192,0,20.9-15.676,31.932-39.479
	c12.192-24.965,26.707-56.315,59.219-56.315s47.026,31.351,59.219,56.315c11.611,23.804,19.739,39.479,31.932,39.479V843.573z"/>
</svg>
