<?xml version="1.0" encoding="utf-8"?>
<!-- Generator: Adobe Illustrator 19.2.0, SVG Export Plug-In . SVG Version: 6.00 Build 0)  -->
<svg version="1.1" id="Layer_1" xmlns="http://www.w3.org/2000/svg" xmlns:xlink="http://www.w3.org/1999/xlink" x="0px" y="0px"
	 viewBox="0 0 195.3 195.3" style="enable-background:new 0 0 195.3 195.3;" xml:space="preserve">
<style type="text/css">
	.st0{fill:#FFFFFF;}
</style>
<path class="st0" d="M31.4,32.9c-0.7,0.7-2.8,2.5-7.1,2.5c-5.9,0-10.7-3.6-10.7-10.3c0-6.7,4.8-10.3,10.7-10.3
	c4.5,0,6.7,1.9,6.7,1.9l-1.7,5.5c0,0-2-1.7-4.5-1.7s-4.6,1.4-4.6,4.6c0,3.1,2.3,4.5,4.6,4.5c2.3,0,3.9-1,4.8-1.8L31.4,32.9z"/>
<path class="st0" d="M47.5,35.1h-6.5v-20h6.5V35.1z"/>
<path class="st0" d="M74.2,35.1h-7.5l-3.2-6.7h-0.8v6.7h-6.5v-20h8.7c2.5,0,4.3,0.4,5.8,1.4s2.5,2.8,2.5,4.9c0,4.1-2.5,5.5-3.3,6
	L74.2,35.1z M65.8,20.4C65.5,20.2,65,20,64.3,20h-1.6v3.5h1.6c0.7,0,1.2-0.1,1.4-0.3c0.3-0.2,0.7-0.5,0.7-1.4
	C66.5,20.9,66,20.6,65.8,20.4z"/>
<path class="st0" d="M98,32.9c-0.7,0.7-2.8,2.5-7.1,2.5c-5.9,0-10.7-3.6-10.7-10.3c0-6.7,4.8-10.3,10.7-10.3c4.5,0,6.7,1.9,6.7,1.9
	l-1.7,5.5c0,0-2-1.7-4.5-1.7s-4.6,1.4-4.6,4.6c0,3.1,2.3,4.5,4.6,4.5c2.3,0,3.9-1,4.8-1.8L98,32.9z"/>
<path class="st0" d="M32.5,61.3c0,3.2-0.7,5.1-2.2,6.5s-3.8,2.3-6.9,2.3s-5.5-0.9-6.9-2.3s-2.2-3.3-2.2-6.5V49.8h6.6v11.7
	c0,1.2,0.2,1.7,0.7,2.2c0.4,0.4,1,0.7,1.9,0.7c0.9,0,1.4-0.3,1.9-0.7c0.4-0.4,0.6-1,0.6-2.2V49.8h6.6V61.3z"/>
<path class="st0" d="M47.6,69.8h-6.5v-20h6.5V69.8z"/>
<path class="st0" d="M72.5,54.9h-4.7v14.9h-6.5V54.9h-4.7v-5.1h15.9V54.9z"/>
<path class="st0" d="M116.9,143.1c-0.7,0.7-2.8,2.5-7.1,2.5c-5.9,0-10.7-3.6-10.7-10.3c0-6.7,4.8-10.3,10.7-10.3
	c4.5,0,6.7,1.9,6.7,1.9l-1.7,5.5c0,0-2-1.7-4.5-1.7s-4.6,1.4-4.6,4.6c0,3.1,2.3,4.5,4.6,4.5c2.3,0,3.9-1,4.8-1.8L116.9,143.1z"/>
<path class="st0" d="M130.7,145.2h-6.5v-20h6.5V145.2z"/>
<path class="st0" d="M157.4,145.2h-7.5l-3.2-6.7h-0.8v6.7h-6.5v-20h8.7c2.5,0,4.3,0.4,5.8,1.4s2.5,2.8,2.5,4.9c0,4.1-2.5,5.5-3.3,6
	L157.4,145.2z M149,130.6c-0.3-0.2-0.7-0.4-1.4-0.4h-1.6v3.5h1.6c0.7,0,1.2-0.1,1.4-0.3c0.3-0.2,0.7-0.5,0.7-1.4
	C149.7,131.1,149.3,130.8,149,130.6z"/>
<path class="st0" d="M181.2,143.1c-0.7,0.7-2.8,2.5-7.1,2.5c-5.9,0-10.7-3.6-10.7-10.3c0-6.7,4.8-10.3,10.7-10.3
	c4.5,0,6.7,1.9,6.7,1.9l-1.7,5.5c0,0-2-1.7-4.5-1.7c-2.5,0-4.6,1.4-4.6,4.6c0,3.1,2.3,4.5,4.6,4.5c2.3,0,3.9-1,4.8-1.8L181.2,143.1z
	"/>
<path class="st0" d="M157.6,171.4c0,3.2-0.7,5.1-2.2,6.5s-3.8,2.3-6.9,2.3c-3.2,0-5.5-0.9-6.9-2.3s-2.2-3.3-2.2-6.5V160h6.6v11.7
	c0,1.2,0.2,1.7,0.7,2.2c0.4,0.4,1,0.7,1.9,0.7s1.4-0.3,1.9-0.7c0.4-0.4,0.6-1,0.6-2.2V160h6.6V171.4z"/>
<path class="st0" d="M178.3,178.6c-1.6,1.2-3.6,1.7-5.9,1.7c-2.3,0-5-0.6-7.7-2.7l2.9-4.9c1.9,1.6,4.5,2.2,5.3,2.2s1.5-0.3,1.5-0.8
	s-0.7-0.8-1.4-1c-0.7-0.2-2.3-0.7-2.9-0.9c-0.6-0.2-1.7-0.6-2.8-1.5c-1-0.9-1.8-2.1-1.8-4.3s1.1-3.8,2.3-4.8c1.2-1,3.2-1.7,5.9-1.7
	s5.4,1,7.1,2.4l-2.5,4.6c-1.5-1.3-3.7-1.9-4.7-1.9s-1.6,0.2-1.6,0.8c0,0.6,0.9,0.8,1.4,0.9c0.5,0.1,1.7,0.5,2.4,0.7
	c0.7,0.2,2.3,0.8,3.3,1.7c1,0.9,1.9,2.2,1.9,4.3C180.9,175.5,179.9,177.4,178.3,178.6z"/>
<path class="st0" d="M189.9,5.4v184.5H5.4V5.4H189.9 M0,195.3h195.3V0l0,0H0"/>
<path class="st0" d="M181.2,71.7c-6.5,0-9.7-5.3-12.2-9.5c-2.6-4.4-4.4-7-7.8-7s-5.2,2.7-7.8,7c-2.6,4.2-5.8,9.5-12.2,9.5
	s-9.7-5.3-12.2-9.5c-2.6-4.4-4.4-7-7.8-7s-5.2,2.7-7.8,7c-2.6,4.2-5.8,9.5-12.2,9.5s-9.7-5.3-12.2-9.5c-2.6-4.4-4.4-7-7.8-7V50
	c6.5,0,9.7,5.3,12.2,9.5c2.6,4.4,4.4,7,7.8,7s5.2-2.7,7.8-7c2.6-4.2,5.8-9.5,12.2-9.5c6.5,0,9.7,5.3,12.2,9.5c2.6,4.4,4.4,7,7.8,7
	c3.4,0,5.2-2.7,7.8-7c2.6-4.2,5.8-9.5,12.2-9.5c6.5,0,9.7,5.3,12.2,9.5c2.6,4.4,4.4,7,7.8,7V71.7z"/>
<path class="st0" d="M181.2,71.7c-6.5,0-9.7-5.3-12.2-9.5c-2.6-4.4-4.4-7-7.8-7s-5.2,2.7-7.8,7c-2.6,4.2-5.8,9.5-12.2,9.5
	s-9.7-5.3-12.2-9.5c-2.6-4.4-4.4-7-7.8-7s-5.2,2.7-7.8,7c-2.6,4.2-5.8,9.5-12.2,9.5s-9.7-5.3-12.2-9.5c-2.6-4.4-4.4-7-7.8-7V50
	c6.5,0,9.7,5.3,12.2,9.5c2.6,4.4,4.4,7,7.8,7s5.2-2.7,7.8-7c2.6-4.2,5.8-9.5,12.2-9.5c6.5,0,9.7,5.3,12.2,9.5c2.6,4.4,4.4,7,7.8,7
	c3.4,0,5.2-2.7,7.8-7c2.6-4.2,5.8-9.5,12.2-9.5c6.5,0,9.7,5.3,12.2,9.5c2.6,4.4,4.4,7,7.8,7V71.7z"/>
<path class="st0" d="M92.8,145.3c-5.6,0-8.1-5.4-10.2-9.7c-2-4.1-3.4-6.8-5.5-6.8c-2.1,0-3.6,2.7-5.5,6.8c-2.1,4.3-4.6,9.7-10.2,9.7
	s-8.1-5.4-10.2-9.7c-2-4.1-3.4-6.8-5.5-6.8c-2.1,0-3.6,2.7-5.5,6.8c-2.1,4.3-4.6,9.7-10.2,9.7c-5.6,0-8.1-5.4-10.2-9.7
	c-2-4.1-3.4-6.8-5.5-6.8v-5.2c5.6,0,8.1,5.4,10.2,9.7c2,4.1,3.4,6.8,5.5,6.8c2.1,0,3.6-2.7,5.5-6.8c2.1-4.3,4.6-9.7,10.2-9.7
	s8.1,5.4,10.2,9.7c2,4.1,3.4,6.8,5.5,6.8c2.1,0,3.6-2.7,5.5-6.8c2.1-4.3,4.6-9.7,10.2-9.7s8.1,5.4,10.2,9.7c2,4.1,3.4,6.8,5.5,6.8
	V145.3z"/>
</svg>
