<?xml version="1.0" encoding="utf-8"?>
<!-- Generator: Adobe Illustrator 16.0.0, SVG Export Plug-In . SVG Version: 6.00 Build 0)  -->
<!DOCTYPE svg PUBLIC "-//W3C//DTD SVG 1.1//EN" "http://www.w3.org/Graphics/SVG/1.1/DTD/svg11.dtd">
<svg version="1.1" id="Layer_1" xmlns="http://www.w3.org/2000/svg" xmlns:xlink="http://www.w3.org/1999/xlink" x="0px" y="0px"
	 width="145.973px" height="35.711px" viewBox="788.396 525.096 145.973 35.711"
	 enable-background="new 788.396 525.096 145.973 35.711" xml:space="preserve">
<path fill="#0000FF" d="M932.248,558.33c-9.212,0-13.748-7.512-17.291-13.465c-3.686-6.236-6.236-9.921-11.056-9.921
	c-4.818,0-7.37,3.827-11.055,9.921c-3.686,5.953-8.221,13.465-17.291,13.465c-9.071,0-13.748-7.512-17.292-13.465
	c-3.685-6.236-6.235-9.921-11.055-9.921s-7.37,3.827-11.055,9.921c-3.686,5.953-8.221,13.465-17.292,13.465
	c-9.07,0-13.747-7.512-17.291-13.465c-3.686-6.236-6.236-9.921-11.056-9.921v-7.37c9.213,0,13.748,7.512,17.292,13.465
	c3.686,6.236,6.236,9.921,11.055,9.921c4.819,0,7.37-3.827,11.056-9.921c3.685-5.953,8.22-13.465,17.291-13.465
	c9.213,0,13.748,7.512,17.291,13.465c3.685,6.236,6.236,9.921,11.056,9.921c4.818,0,7.369-3.827,11.055-9.921
	c3.686-5.953,8.221-13.465,17.291-13.465c9.213,0,13.748,7.512,17.292,13.465c3.685,6.236,6.236,9.921,11.055,9.921V558.33
	L932.248,558.33z"/>
</svg>
